<svg width="562" height="625" viewBox="0 0 562 625" fill="none" xmlns="http://www.w3.org/2000/svg">
<path d="M518.591 593.832C507.861 509.895 484.513 333.436 476.96 299.091C467.518 256.161 442.196 250.135 435.543 248.378C430.222 246.972 390.121 247.792 370.736 248.378C365.071 290.355 343.626 298.673 333.612 297.585C302.195 294.171 300.064 263.358 302.925 248.378C297.989 249.047 281.466 248.378 266.015 248.378C244.701 248.378 237.474 255.659 230.178 260.931C224.341 265.148 185.686 318.59 167.088 344.784C166.916 340.968 153.282 258.671 146.487 218C105.457 230.252 79.4623 231.641 71.5939 230.804C71.4508 231.473 76.2291 263.893 96.4867 388.217C116.744 512.54 182.61 538.432 213.011 535.838L219.494 460.769M420.307 366.877L433.397 601.113C359.649 601.782 211.637 602.72 209.577 601.113C208.198 600.037 213.667 530.106 219.494 460.769M219.494 460.769C222.37 426.542 225.333 392.46 227.603 366.877L219.494 460.769ZM146.058 258.895C150.702 257.838 153.568 257.165 153.568 257.165M146.058 258.895L140.478 221.515M146.058 258.895C143.261 259.531 139.82 260.306 135.972 261.157M135.972 261.157L129.963 224.025M135.972 261.157C132.272 261.976 128.196 262.864 123.955 263.767M123.955 263.767L117.517 226.787M123.955 263.767C119.757 264.66 115.397 265.567 111.079 266.433M111.079 266.433L105.929 228.293M111.079 266.433C106.977 267.257 102.912 268.043 99.0618 268.746M99.0618 268.746L93.2678 229.8M99.0618 268.746C94.341 269.609 89.9414 270.346 86.1862 270.871M77.3879 271.726C79.5218 271.691 82.5522 271.38 86.1862 270.871M86.1862 270.871L79.7484 231.557M382.399 254.905C382.439 252.724 382.415 250.466 382.324 248.127M382.399 254.905H368.805M382.399 254.905C382.315 259.511 381.949 263.772 381.339 267.709M381.339 267.709L367.303 263.943M381.339 267.709C380.512 273.048 379.235 277.794 377.603 282.005M377.603 282.005L364.299 275.241M377.603 282.005C374.965 288.813 371.399 294.222 367.303 298.475M367.303 298.475L357.002 286.79M367.303 298.475C362.704 303.251 357.437 306.57 352.067 308.78M352.067 308.78L346.487 295.074M352.067 308.78C345.593 311.443 338.969 312.492 333.183 312.535M333.183 312.535C330.884 312.551 328.717 312.409 326.745 312.146C322.618 311.064 318.911 309.67 315.586 308.023M333.183 312.535V297.585M315.586 308.023L322.238 294.07M315.586 308.023C309.872 305.193 305.287 301.615 301.637 297.585M301.637 297.585L312.796 288.045M301.637 297.585C298.211 293.801 295.61 289.619 293.675 285.283M293.675 285.283L306.573 278.756M293.675 285.283C291.655 280.756 290.36 276.06 289.609 271.475M289.609 271.475L303.14 265.952M289.609 271.475C288.643 265.57 288.579 259.849 289.031 254.905M290.049 248.127C289.613 250.14 289.257 252.425 289.031 254.905M289.031 254.905L303.14 256.161" stroke="black" stroke-width="5.18258"/>
<path d="M80.1399 229C79.0199 216.561 70.5975 179.866 45.8681 132.599C43.7961 127.638 41.2649 116.784 47.7161 113.052C55.78 108.387 60.652 112.608 62.5 116.828C62.963 117.886 64.2073 120.612 65.8374 124.159C64.4466 120.853 63.6281 118.51 63.844 117.939C64.684 115.717 59.98 104.833 67.5399 101.724C75.0999 98.614 78.7959 101.724 81.6519 106.833C83.9367 110.92 94.8118 132.969 99.9638 143.483L83.1639 109.054C81.8199 104.167 80.9463 93.5052 88.2038 89.9512C95.4614 86.3973 100.86 93.6533 102.652 97.7255L120.796 135.708C122.476 125.269 128.624 106.122 139.78 113.052C153.723 121.715 142.132 142.594 140.956 149.258C139.78 155.922 132.388 188.796 139.108 217.227C127.348 221.152 99.0902 229 80.1399 229Z" fill="white"/>
<path d="M120.796 136.819C119.9 143.779 116.831 157.61 111.724 157.254C105.34 156.81 94.9238 162.141 91.5638 177.912M80.1399 229C79.0199 216.561 70.5975 179.866 45.8681 132.599C43.7961 127.638 41.2649 116.784 47.7161 113.052C55.78 108.387 60.652 112.608 62.5 116.828C63.9784 120.204 73.4199 140.595 77.9559 150.369C72.5239 138.67 63.172 119.716 63.844 117.939C64.684 115.717 59.98 104.833 67.54 101.724C75.0999 98.614 78.7959 101.724 81.6519 106.833C83.9367 110.92 94.8118 132.969 99.9638 143.483L83.1639 109.054C81.8199 104.167 80.9463 93.5052 88.2038 89.9512C95.4614 86.3973 100.86 93.6533 102.652 97.7255L120.796 135.708C122.476 125.269 128.624 106.122 139.78 113.052C153.723 121.715 142.132 142.594 140.956 149.258C139.78 155.922 132.388 188.796 139.108 217.227C127.348 221.152 99.0902 229 80.1399 229Z" stroke="black" stroke-width="5.18258"/>
<path d="M196.047 197.723C187.43 200.473 170.516 201.039 159.893 186.987M159.893 186.987C157.326 183.591 155.126 179.342 153.5 174.065C152.121 169.592 153.5 159.927 161.255 161.37C166.102 162.271 172.242 167.284 165.348 180.845C163.918 183.658 162.046 185.649 159.893 186.987ZM159.893 186.987C151.666 192.096 139.333 187.658 131.849 183.009C125.709 178.537 123.124 174.497 117.738 164.976M117.738 164.976L136.804 169.881M117.738 164.976L111.706 186.759M557.345 383.843C560.084 365.601 559.635 330.13 541.981 308.845M541.981 308.845C537.715 303.703 532.445 299.388 525.972 296.345C520.488 293.767 508.926 297.322 511.185 313.469C512.596 323.561 519.051 336.077 534.94 320.698C538.236 317.508 540.512 313.449 541.981 308.845ZM541.981 308.845C547.591 291.258 541.415 265.728 535.308 250.371C529.504 237.818 524.461 232.681 512.621 222.056M512.621 222.056L519.811 261.658M512.621 222.056L538.482 207.915M88.6551 429.947C72.821 436.92 34.9484 437.91 10.1309 386.092M10.1309 386.092L28.0116 387.246M10.1309 386.092L7.33027 409.174M525.531 500.161C525.531 503.109 527.315 505.498 529.516 505.498C531.717 505.498 533.502 503.109 533.502 500.161C533.502 497.213 531.717 494.823 529.516 494.823C527.315 494.823 525.531 497.213 525.531 500.161ZM513.036 509.538C513.036 511.45 514.193 513 515.621 513C517.049 513 518.206 511.45 518.206 509.538C518.206 507.626 517.049 506.075 515.621 506.075C514.193 506.075 513.036 507.626 513.036 509.538ZM499.555 279.612C499.555 282.401 501.243 284.661 503.325 284.661C505.407 284.661 507.095 282.401 507.095 279.612C507.095 276.824 505.407 274.563 503.325 274.563C501.243 274.563 499.555 276.824 499.555 279.612ZM338.11 149.313C338.11 152.102 339.797 154.363 341.88 154.363C343.962 154.363 345.65 152.102 345.65 149.313C345.65 146.525 343.962 144.264 341.88 144.264C339.797 144.264 338.11 146.525 338.11 149.313ZM352.328 134.743C352.328 136.496 353.389 137.917 354.698 137.917C356.006 137.917 357.067 136.496 357.067 134.743C357.067 132.99 356.006 131.57 354.698 131.57C353.389 131.57 352.328 132.99 352.328 134.743ZM175.262 251.486C175.262 253.238 176.323 254.659 177.632 254.659C178.94 254.659 180.001 253.238 180.001 251.486C180.001 249.733 178.94 248.312 177.632 248.312C176.323 248.312 175.262 249.733 175.262 251.486ZM148.76 74.1737C148.76 75.9265 149.821 77.3474 151.13 77.3474C152.439 77.3474 153.5 75.9265 153.5 74.1737C153.5 72.4209 152.439 71 151.13 71C149.821 71 148.76 72.4209 148.76 74.1737ZM36.254 245.138C36.254 246.891 37.315 248.312 38.6237 248.312C39.9325 248.312 40.9935 246.891 40.9935 245.138C40.9935 243.385 39.9325 241.965 38.6237 241.965C37.315 241.965 36.254 243.385 36.254 245.138ZM2.5908 470.829C2.5908 472.582 3.65177 474.003 4.96054 474.003C6.2693 474.003 7.33027 472.582 7.33027 470.829C7.33027 469.076 6.2693 467.656 4.96054 467.656C3.65177 467.656 2.5908 469.076 2.5908 470.829ZM23.1127 228.548C23.1127 231.496 24.8971 233.886 27.0982 233.886C29.2993 233.886 31.0837 231.496 31.0837 228.548C31.0837 225.601 29.2993 223.211 27.0982 223.211C24.8971 223.211 23.1127 225.601 23.1127 228.548Z" stroke="#757575" stroke-width="5.18258"/>
<path d="M293.591 607.659L258.747 466H58.8797L93.5846 607.659H293.591Z" fill="#48A8F9"/>
<path d="M281.982 622L246.592 476.39H43.5906L78.8398 622H281.982Z" stroke="black" stroke-width="5.18258"/>
<path d="M223.659 553.513L189.118 493.805L154.718 553.513H223.659Z" stroke="white" stroke-width="5.18258"/>
<path d="M155.85 523.322C138.988 523.322 125.174 537.478 125.174 555.122C125.174 572.765 138.988 586.92 155.85 586.92C172.711 586.92 186.526 572.765 186.526 555.122C186.526 537.478 172.711 523.322 155.85 523.322Z" stroke="white" stroke-width="5.18258"/>
<path d="M251.688 579.853H209.927M249.848 570.487C231.217 570.487 220.772 570.487 202.141 570.487M253.387 589.219H221.535M136.314 505.365H104.321M136.314 495.999C117.684 495.999 107.238 495.999 88.6076 495.999" stroke="white" stroke-width="5.18258"/>
<path d="M519.113 29.9384V0H491.318C491.318 0 491.651 22.5069 474.341 22.5069C457.031 22.5069 457.863 0 457.863 0H430.068V29.9384C415.954 29.9384 412.536 43.5274 412.591 50.3219C412.591 71.7247 424.242 74.1027 430.068 72.6164V102.979H458.196C458.141 109.986 461.358 124 474.674 124C487.989 124 491.207 109.42 491.151 102.13H519.113V72.6164C524.606 72.4749 535.591 68.0726 535.591 51.5959C535.591 35.1192 524.606 30.2922 519.113 29.9384Z" fill="#48A8F9"/>
<path d="M313.337 130.981C322.959 114.764 329.373 108.042 331.378 106.708C405.704 85.1565 408.05 133.648 399.931 160.588C409.794 157.601 414.665 165.389 415.867 169.657C420.197 185.661 404.041 195.53 395.421 198.464L384.898 255.545C373.352 296.301 346.01 301.867 333.783 299.555C291.208 294.007 288.782 262.924 292.891 248.076C295.297 235.006 300.228 208.333 300.709 206.199C301.31 203.532 298.604 202.732 287.178 196.864C278.038 192.169 280.363 185.127 282.668 182.193C288.882 171.88 303.716 147.198 313.337 130.981Z" fill="white"/>
<path d="M349.719 118.445C328.551 117.591 325.264 112.577 326.266 110.176C333.182 102.974 354.169 90.9713 382.793 100.574C411.417 110.176 410.455 143.962 405.945 159.788C400.172 158.081 392.715 164.411 390.611 166.99C368.361 162.189 378.283 132.315 378.283 127.513C378.283 122.712 376.178 119.512 349.719 118.445Z" fill="#4B3300"/>
<path d="M383.422 170.084C386.428 166.261 394.186 158.828 401.161 159.682M387.33 182.354C388.568 180.408 391.201 177.504 394.847 175.632M394.847 175.632C397.697 174.169 401.166 173.336 405.07 174.085M394.847 175.632C396.952 177.072 401.161 180.807 401.161 184.221M375.604 189.556C378.31 193.112 386.849 199.425 399.357 196.224M320.581 168.484C322.184 169.907 326.654 172.218 331.706 170.084M352.452 140.744C355.96 140.033 364.78 140.584 371.996 148.479M314.266 126.874C317.474 125.985 325.451 126.127 331.706 133.809M339.824 141.277C337.819 146.345 331.766 156.748 323.587 157.815C325.191 158.793 328.939 160.802 331.104 161.016M331.378 106.708C329.373 108.042 322.959 114.764 313.337 130.981C303.716 147.198 288.882 171.88 282.668 182.193C280.363 185.127 278.038 192.169 287.178 196.864C298.604 202.732 301.31 203.532 300.709 206.199C300.228 208.333 295.297 235.006 292.891 248.076C288.782 262.924 291.208 294.007 333.783 299.555C346.01 301.867 373.352 296.301 384.898 255.545L395.421 198.464C404.041 195.53 420.197 185.661 415.867 169.657C414.665 165.389 409.794 157.601 399.931 160.588C408.05 133.648 405.704 85.1565 331.378 106.708ZM326.266 110.176C325.264 112.577 328.551 117.591 349.719 118.445C376.178 119.512 378.283 122.712 378.283 127.513C378.283 132.315 368.361 162.189 390.611 166.99C392.715 164.411 400.172 158.081 405.945 159.788C410.455 143.962 411.417 110.176 382.793 100.574C354.169 90.9713 333.182 102.974 326.266 110.176Z" stroke="black" stroke-width="5.18258"/>
<path d="M86.5549 148.431C88.0482 148.525 92.9236 148.77 100.479 148.996C106.057 149.162 109.162 144.617 110.633 140.522C111.154 139.071 111.47 137.676 111.618 136.567V133.178V125.693V119.196C96.4106 125.636 82.8419 122.162 78.0796 119.479C77.9182 121.786 77.9343 128.207 78.3218 136.567C78.3903 138.047 78.6117 139.36 78.9439 140.522C80.4884 145.921 84.4292 148.043 86.5549 148.431Z" fill="#FFC543"/>
<path d="M49.6267 70.614C49.6267 99.6293 69.792 123.151 94.6671 123.151C119.542 123.151 139.707 99.6293 139.707 70.614C139.707 41.5987 119.542 18.0772 94.6671 18.0772C69.792 18.0772 49.6267 41.5987 49.6267 70.614Z" fill="#FFC543"/>
<path d="M97.5729 60.1631C101.127 65.8967 104.351 70.4776 107.269 74.1327C105.428 77.6154 101.792 80.8879 94.6671 82.336C89.5401 82.9738 85.8104 82.5133 82.8545 79.9172C83.9501 78.7063 84.9187 77.259 85.7074 75.557C89.5819 67.1963 86.0706 62.6111 83.6491 61.293C76.4814 58.4684 76.3038 65.6711 77.111 69.6254C78.7558 74.6431 80.575 77.9152 82.8545 79.9172C85.8104 82.5133 89.5401 82.9738 94.6671 82.336C101.792 80.8879 105.428 77.6154 107.269 74.1327C109.559 69.8031 109.075 65.1485 109.075 63.2701C109.075 62.3227 107.616 48.5077 100.115 48.8649C94.1827 49.1474 95.7164 56.6795 97.5729 60.1631Z" fill="#FFC543"/>
<path d="M111.618 125.693V119.196C96.4106 125.636 82.8419 122.162 78.0796 119.479C77.9182 121.786 77.9343 128.207 78.3218 136.567C78.3903 138.047 78.6117 139.36 78.9439 140.522M111.618 125.693C105.887 128.376 91.2043 132.133 78.3218 125.693M111.618 125.693V133.178M111.618 133.178V136.567C111.47 137.676 111.154 139.071 110.633 140.522M111.618 133.178C105.766 135.673 90.9137 139.166 78.3218 133.178M110.633 140.522C109.162 144.617 106.057 149.162 100.479 148.996C92.9236 148.77 88.0482 148.525 86.5549 148.431C84.4292 148.043 80.4884 145.921 78.9439 140.522M110.633 140.522C105.524 142.311 92.0336 144.815 78.9439 140.522M147.214 23.7263L136.075 33.7535M162.591 72.1675H146.488M149.757 114.536L138.981 105.074M96.8464 0V14.264M59.4339 26.9745L48.7792 17.936M42.9675 65.1061H27.5908M52.0482 105.074L42.9675 114.536M129.779 87.9851L129.713 87.9951C126.452 88.4954 119.579 89.5499 107.269 74.1327M107.269 74.1327C104.351 70.4776 101.127 65.8967 97.5729 60.1631C95.7164 56.6795 94.1827 49.1474 100.115 48.8649C107.616 48.5077 109.075 62.3227 109.075 63.2701C109.075 65.1485 109.559 69.8031 107.269 74.1327ZM107.269 74.1327C105.428 77.6154 101.792 80.8879 94.6671 82.336C89.5401 82.9738 85.8104 82.5133 82.8545 79.9172M82.8545 79.9172C80.575 77.9152 78.7558 74.6431 77.111 69.6254C76.3038 65.6711 76.4814 58.4684 83.6491 61.293C86.0706 62.6111 89.5819 67.1963 85.7074 75.557C84.9187 77.259 83.9501 78.7063 82.8545 79.9172ZM82.8545 79.9172C77.2229 86.1415 68.2354 86.1192 63.0662 82.336M49.6267 70.614C49.6267 99.6293 69.792 123.151 94.6671 123.151C119.542 123.151 139.707 99.6293 139.707 70.614C139.707 41.5987 119.542 18.0772 94.6671 18.0772C69.792 18.0772 49.6267 41.5987 49.6267 70.614Z" stroke="black" stroke-width="5.18258"/>
</svg>
